<svg width="30" height="30" viewBox="0 0 30 30" fill="none" xmlns="http://www.w3.org/2000/svg">
<g clip-path="url(#clip0)">
<path d="M13.6648 17.8694H12.2368V12.4723C12.2368 12.2353 12.094 12.0217 11.8751 11.931C11.6562 11.8403 11.4042 11.8905 11.2367 12.0579L9.70493 13.5896C9.47614 13.8184 9.47614 14.1894 9.70493 14.4183C9.93372 14.647 10.3047 14.647 10.5335 14.4183L11.0651 13.8867V17.8694H9.63703C9.31345 17.8694 9.05115 18.1317 9.05115 18.4553C9.05115 18.7789 9.31345 19.0411 9.63703 19.0411H13.6648C13.9884 19.0411 14.2507 18.7789 14.2507 18.4553C14.2507 18.1317 13.9884 17.8694 13.6648 17.8694Z" fill="#FD4B1B"/>
<path d="M13.2424 22.8489C13.0883 22.8489 12.9371 22.9116 12.8282 23.0205C12.7192 23.1295 12.6565 23.2807 12.6565 23.4353C12.6565 23.5894 12.7192 23.74 12.8282 23.8496C12.9371 23.9585 13.0883 24.0206 13.2424 24.0206C13.3965 24.0206 13.5476 23.9585 13.6566 23.8496C13.7656 23.74 13.8283 23.5894 13.8283 23.4353C13.8283 23.2807 13.7656 23.1295 13.6566 23.0205C13.5476 22.9116 13.3965 22.8489 13.2424 22.8489Z" fill="black"/>
<path d="M20.5764 9.02693C20.6854 8.91737 20.7481 8.7668 20.7481 8.61213C20.7481 8.45804 20.6854 8.30747 20.5764 8.19791C20.4674 8.08893 20.3163 8.02625 20.1622 8.02625C20.0081 8.02625 19.8569 8.08893 19.748 8.19791C19.639 8.30688 19.5763 8.45804 19.5763 8.61213C19.5763 8.7668 19.639 8.91795 19.748 9.02693C19.8569 9.1359 20.0081 9.19801 20.1622 9.19801C20.3163 9.19801 20.4674 9.1359 20.5764 9.02693Z" fill="black"/>
<path d="M27.8054 17.2015C26.4914 15.8875 24.807 15.1644 23.0852 15.0314V4.10116C23.0852 3.132 22.2968 2.34352 21.3276 2.34352H18.1602V1.99199C18.1602 0.893585 17.2666 0 16.1682 0C15.0698 0 14.1762 0.893585 14.1762 1.99199V2.34352H8.91069V1.99199C8.91069 0.893585 8.0171 0 6.91869 0C5.82028 0 4.9267 0.893585 4.9267 1.99199V2.34352H1.7592C0.790034 2.34352 0.0015564 3.132 0.0015564 4.10116V22.2635C0.0015564 23.2326 0.790034 24.0211 1.7592 24.0211H10.8989C11.2225 24.0211 11.4848 23.7588 11.4848 23.4352C11.4848 23.1116 11.2225 22.8493 10.8989 22.8493H1.7592C1.43614 22.8493 1.17332 22.5865 1.17332 22.2635V9.19832H17.8187C18.1423 9.19832 18.4046 8.93602 18.4046 8.61244C18.4046 8.28886 18.1423 8.02656 17.8187 8.02656H1.17332V4.10116C1.17332 3.77811 1.43614 3.51528 1.7592 3.51528H4.92664V4.48198C4.92664 5.58039 5.82023 6.47398 6.91863 6.47398C8.01704 6.47398 8.91063 5.58039 8.91063 4.48198V3.51528H14.1761V4.48198C14.1761 5.58039 15.0697 6.47398 16.1681 6.47398C17.2665 6.47398 18.1601 5.58039 18.1601 4.48198V3.51528H21.3275C21.6506 3.51528 21.9134 3.77811 21.9134 4.10116V15.0319C20.1939 15.1662 18.5121 15.8891 17.1997 17.2015C15.7833 18.6179 15.0033 20.5012 15.0033 22.5043C15.0033 24.5074 15.7833 26.3906 17.1997 27.8071C18.6617 29.2691 20.5821 30.0001 22.5025 30.0001C24.4229 30.0001 26.3433 29.2691 27.8053 27.8071C30.7293 24.8831 30.7293 20.1255 27.8054 17.2015ZM7.73887 4.48198C7.73887 4.93428 7.37093 5.30222 6.91863 5.30222C6.46633 5.30222 6.0984 4.93428 6.0984 4.48198V1.99199C6.0984 1.53969 6.46633 1.17176 6.91863 1.17176C7.37093 1.17176 7.73887 1.53969 7.73887 1.99199V4.48198ZM16.9883 4.48198C16.9883 4.93428 16.6204 5.30222 16.1681 5.30222C15.7158 5.30222 15.3479 4.93428 15.3479 4.48198V1.99199C15.3479 1.53969 15.7158 1.17176 16.1681 1.17176C16.6204 1.17176 16.9883 1.53969 16.9883 1.99199V4.48198ZM26.9768 26.9785C24.5097 29.4456 20.4954 29.4456 18.0283 26.9785C15.5612 24.5114 15.5612 20.4972 18.0283 18.0301C19.2618 16.7965 20.8822 16.1798 22.5025 16.1798C24.1229 16.1798 25.7432 16.7965 26.9768 18.0301C29.4439 20.4971 29.4439 24.5114 26.9768 26.9785Z" fill="#3316F2"/>
<path d="M22.4969 26.3689C22.1733 26.3689 21.911 26.6312 21.911 26.9548V27.377C21.911 27.7006 22.1733 27.9629 22.4969 27.9629C22.8205 27.9629 23.0828 27.7006 23.0828 27.377V26.9548C23.0828 26.6312 22.8205 26.3689 22.4969 26.3689Z" fill="black"/>
<path d="M22.4969 18.6395C22.8205 18.6395 23.0828 18.3772 23.0828 18.0537V17.6314C23.0828 17.3078 22.8205 17.0455 22.4969 17.0455C22.1733 17.0455 21.911 17.3078 21.911 17.6314V18.0537C21.911 18.3772 22.1733 18.6395 22.4969 18.6395Z" fill="black"/>
<path d="M18.0519 21.9127H17.6297C17.3061 21.9127 17.0438 22.175 17.0438 22.4986C17.0438 22.8222 17.3061 23.0845 17.6297 23.0845H18.0519C18.3755 23.0845 18.6378 22.8222 18.6378 22.4986C18.6378 22.175 18.3755 21.9127 18.0519 21.9127Z" fill="black"/>
<path d="M27.3752 21.9241H26.9529C26.6294 21.9241 26.3671 22.1864 26.3671 22.51C26.3671 22.8335 26.6294 23.0958 26.9529 23.0958H27.3752C27.6988 23.0958 27.9611 22.8335 27.9611 22.51C27.9611 22.1864 27.6988 21.9241 27.3752 21.9241Z" fill="black"/>
<path d="M25.1945 18.974L22.5073 21.6697L21.429 20.5406C21.2056 20.3066 20.8346 20.298 20.6006 20.5216C20.3666 20.745 20.3581 21.1159 20.5816 21.3499L22.0706 22.9089C22.1812 23.0247 22.3343 23.0901 22.4943 23.0901H22.5025C22.6582 23.0901 22.8075 23.0282 22.9174 22.9179L26.0244 19.8012C26.2528 19.5721 26.2522 19.2011 26.0231 18.9727C25.7939 18.7443 25.423 18.7448 25.1945 18.974Z" fill="black"/>
</g>
<defs>
<clipPath id="clip0">
<rect width="30" height="30" fill="white"/>
</clipPath>
</defs>
</svg>
