<svg width="30" height="29" viewBox="0 0 30 29" fill="none" xmlns="http://www.w3.org/2000/svg">
<path d="M28.1145 1.83285C24.0974 -2.12772 17.4184 0.782515 17.338 6.24798C17.3067 8.44113 18.3879 10.464 20.2302 11.6576C20.6145 11.9066 20.4973 11.8126 22.7895 15.8617C22.8305 15.934 22.8786 15.9984 22.9314 16.0556L19.5872 19.2773C18.3737 18.0725 16.3591 18.2959 15.4395 19.7456L10.9758 17.089C10.9692 15.6179 9.76982 14.4225 8.29697 14.4225C5.95894 14.4225 4.75594 17.219 6.3327 18.92L3.41217 23.3329C1.71043 22.846 0 24.1294 0 25.9094C0 27.3861 1.20117 28.588 2.67815 28.588C5.25444 28.588 6.33865 25.2859 4.26796 23.7552L7.08984 19.492C8.48076 20.1999 10.2088 19.5586 10.7899 18.0803L15.0787 20.633C14.7324 22.2912 16.0062 23.8563 17.7013 23.8563C19.6504 23.8563 20.9496 21.8268 20.1363 20.0621C24.2267 16.1215 23.9754 16.3696 24.0159 16.3137C24.2297 16.2368 24.4215 16.0865 24.5485 15.8617C26.8396 11.8144 26.7233 11.9066 27.109 11.6569C28.9194 10.483 30 8.4956 30 6.34091C30 4.63345 29.3305 3.03219 28.1145 1.83285ZM4.41055 25.9094C4.41055 26.8645 3.63327 27.6418 2.67815 27.6418C1.72302 27.6418 0.946426 26.8645 0.946426 25.9094C0.946426 24.954 1.72302 24.177 2.67815 24.177C3.63327 24.177 4.41055 24.954 4.41055 25.9094ZM6.87927 18.0949C6.0791 16.9603 6.89163 15.3689 8.29697 15.3689C9.2569 15.3689 10.0294 16.1515 10.0294 17.1013C10.0294 18.7811 7.85339 19.4812 6.87927 18.0949ZM17.7013 22.9101C16.5566 22.9101 15.8862 21.8325 15.97 21.1628C15.9803 19.6435 17.8182 18.8781 18.9054 19.9344C20.015 21.0049 19.2613 22.9101 17.7013 22.9101ZM26.6263 10.9124C26.3212 11.1103 26.0669 11.3788 25.8911 11.6894C23.6119 15.7157 23.7735 15.4873 23.6691 15.4873C23.5645 15.4873 23.7298 15.7221 21.4469 11.6894C21.2711 11.3788 21.0175 11.1103 20.7122 10.9128C19.1279 9.88606 18.1979 8.14725 18.2252 6.26103C18.2936 1.51082 24.0795 -0.898622 27.4917 2.46457C29.9709 4.90994 29.5475 9.01837 26.6263 10.9124Z" fill="#3316F2"/>
</svg>
