<svg width="30" height="30" viewBox="0 0 30 30" fill="none" xmlns="http://www.w3.org/2000/svg">
<path d="M24.9895 3.3999C24.9856 3.38257 24.9751 3.3689 24.97 3.35254C24.9614 3.32446 24.9502 3.29736 24.9365 3.27148C24.9209 3.2417 24.9021 3.21387 24.8806 3.18799C24.8633 3.1665 24.8442 3.14648 24.8235 3.12793C24.7983 3.10669 24.7708 3.08838 24.7415 3.073C24.7168 3.05811 24.6907 3.04541 24.6636 3.03491C24.6311 3.02466 24.5974 3.01782 24.5635 3.0144C24.5427 3.0083 24.5215 3.00342 24.5 3H21.979C21.8501 1.25952 21.0425 0 20 0C18.9575 0 18.1499 1.25952 18.021 3H16.979C16.8501 1.25952 16.0425 0 15 0C13.9575 0 13.1499 1.25952 13.021 3H11.979C11.8501 1.25952 11.0425 0 10 0C8.95752 0 8.1499 1.25952 8.021 3H6.979C6.8501 1.25952 6.04248 0 5 0C3.95752 0 3.1499 1.25952 3.021 3H0.5C0.223877 3 0 3.22388 0 3.5V29.5C0 29.7761 0.223877 30 0.5 30H24.5C24.7761 30 25 29.7761 25 29.5V28H29.5C29.6501 28 29.7922 27.9324 29.887 27.8162C29.9819 27.6997 30.0195 27.5471 29.9895 27.3999L24.9895 3.3999ZM20 1C20.3611 1 20.865 1.76611 20.9761 3H19.0259C19.135 1.76611 19.6389 1 20 1ZM15 1C15.3611 1 15.865 1.76611 15.9761 3H14.0259C14.135 1.76611 14.6389 1 15 1ZM10 1C10.3611 1 10.865 1.76611 10.9761 3H9.02588C9.13501 1.76611 9.63892 1 10 1ZM5 1C5.36108 1 5.86499 1.76611 5.97607 3H4.02588C4.13501 1.76611 4.63892 1 5 1ZM1 4H3.021C3.1499 5.74048 3.95752 7 5 7C5.27612 7 5.5 6.77612 5.5 6.5C5.5 6.22388 5.27612 6 5 6C4.63892 6 4.13501 5.23389 4.02393 4H8.021C8.15161 5.74048 8.95752 7 10 7C10.2761 7 10.5 6.77612 10.5 6.5C10.5 6.22388 10.2761 6 10 6C9.63892 6 9.13501 5.23389 9.02393 4H13.021C13.1516 5.74048 13.9575 7 15 7C15.2761 7 15.5 6.77612 15.5 6.5C15.5 6.22388 15.2761 6 15 6C14.6389 6 14.135 5.23389 14.0239 4H18.021C18.1516 5.74048 18.9575 7 20 7C20.2761 7 20.5 6.77612 20.5 6.5C20.5 6.22388 20.2761 6 20 6C19.6389 6 19.135 5.23389 19.0239 4H24V9H1V4ZM24 29H1V10H24V29ZM25 27V8.3501L28.8855 27H25Z" fill="#3316F2"/>
<path d="M11 18H9C8.72388 18 8.5 18.2239 8.5 18.5V20.5C8.5 20.7761 8.72388 21 9 21H11C11.2761 21 11.5 20.7761 11.5 20.5V18.5C11.5 18.2239 11.2761 18 11 18ZM10.5 20H9.5V19H10.5V20Z" fill="black"/>
<path d="M16 18H14C13.7239 18 13.5 18.2239 13.5 18.5V20.5C13.5 20.7761 13.7239 21 14 21H16C16.2761 21 16.5 20.7761 16.5 20.5V18.5C16.5 18.2239 16.2761 18 16 18ZM15.5 20H14.5V19H15.5V20Z" fill="black"/>
<path d="M6 18H4C3.72388 18 3.5 18.2239 3.5 18.5V20.5C3.5 20.7761 3.72388 21 4 21H6C6.27612 21 6.5 20.7761 6.5 20.5V18.5C6.5 18.2239 6.27612 18 6 18ZM5.5 20H4.5V19H5.5V20Z" fill="black"/>
<path d="M11 23H9C8.72388 23 8.5 23.2239 8.5 23.5V25.5C8.5 25.7761 8.72388 26 9 26H11C11.2761 26 11.5 25.7761 11.5 25.5V23.5C11.5 23.2239 11.2761 23 11 23ZM10.5 25H9.5V24H10.5V25Z" fill="black"/>
<path d="M16 23H14C13.7239 23 13.5 23.2239 13.5 23.5V25.5C13.5 25.7761 13.7239 26 14 26H16C16.2761 26 16.5 25.7761 16.5 25.5V23.5C16.5 23.2239 16.2761 23 16 23ZM15.5 25H14.5V24H15.5V25Z" fill="#FD4B1B"/>
<path d="M6 23H4C3.72388 23 3.5 23.2239 3.5 23.5V25.5C3.5 25.7761 3.72388 26 4 26H6C6.27612 26 6.5 25.7761 6.5 25.5V23.5C6.5 23.2239 6.27612 23 6 23ZM5.5 25H4.5V24H5.5V25Z" fill="#FD4B1B"/>
<path d="M11 13H9C8.72388 13 8.5 13.2239 8.5 13.5V15.5C8.5 15.7761 8.72388 16 9 16H11C11.2761 16 11.5 15.7761 11.5 15.5V13.5C11.5 13.2239 11.2761 13 11 13ZM10.5 15H9.5V14H10.5V15Z" fill="#FD4B1B"/>
<path d="M16 13H14C13.7239 13 13.5 13.2239 13.5 13.5V15.5C13.5 15.7761 13.7239 16 14 16H16C16.2761 16 16.5 15.7761 16.5 15.5V13.5C16.5 13.2239 16.2761 13 16 13ZM15.5 15H14.5V14H15.5V15Z" fill="#FD4B1B"/>
<path d="M21 18H19C18.7239 18 18.5 18.2239 18.5 18.5V20.5C18.5 20.7761 18.7239 21 19 21H21C21.2761 21 21.5 20.7761 21.5 20.5V18.5C21.5 18.2239 21.2761 18 21 18ZM20.5 20H19.5V19H20.5V20Z" fill="#FD4B1B"/>
<path d="M21 23H19C18.7239 23 18.5 23.2239 18.5 23.5V25.5C18.5 25.7761 18.7239 26 19 26H21C21.2761 26 21.5 25.7761 21.5 25.5V23.5C21.5 23.2239 21.2761 23 21 23ZM20.5 25H19.5V24H20.5V25Z" fill="black"/>
<path d="M21 13H19C18.7239 13 18.5 13.2239 18.5 13.5V15.5C18.5 15.7761 18.7239 16 19 16H21C21.2761 16 21.5 15.7761 21.5 15.5V13.5C21.5 13.2239 21.2761 13 21 13ZM20.5 15H19.5V14H20.5V15Z" fill="black"/>
<path d="M6 13H4C3.72388 13 3.5 13.2239 3.5 13.5V15.5C3.5 15.7761 3.72388 16 4 16H6C6.27612 16 6.5 15.7761 6.5 15.5V13.5C6.5 13.2239 6.27612 13 6 13ZM5.5 15H4.5V14H5.5V15Z" fill="black"/>
</svg>
