<svg width="30" height="34" viewBox="0 0 30 34" fill="none" xmlns="http://www.w3.org/2000/svg">
<path d="M0.489601 5.03389V31.5225C0.489601 32.3063 1.12495 32.9416 1.90867 32.9416H22.462C23.2457 32.9416 23.881 32.3063 23.881 31.5226V1.90875C23.881 1.12503 23.2457 0.489746 22.462 0.489746H5.28263L0.489601 5.03389Z" fill="#F9F7F8"/>
<path d="M23.8809 1.90875V31.5225C23.8809 32.3064 23.2458 32.9415 22.4618 32.9415H21.1257C21.909 32.9415 22.5447 32.3064 22.5447 31.5225V1.90875C22.5447 1.12484 21.909 0.489746 21.1257 0.489746H22.4618C23.2458 0.489746 23.8809 1.12484 23.8809 1.90875Z" fill="#EFEDEF"/>
<path d="M5.28263 0.489746V3.99124C5.28263 4.60212 4.78741 5.09733 4.17653 5.09733H0.489601L5.28263 0.489746Z" fill="#BFBFBF"/>
<path d="M3.68242 8.65461H10.1615C10.4318 8.65461 10.651 8.43543 10.651 8.16507C10.651 7.89472 10.4318 7.67554 10.1615 7.67554H3.68242C3.41207 7.67554 3.19289 7.89472 3.19289 8.16507C3.19289 8.43543 3.41207 8.65461 3.68242 8.65461Z" fill="#FD4B1B"/>
<path d="M3.68242 11.1296H15.2194C15.4897 11.1296 15.7089 10.9104 15.7089 10.64C15.7089 10.3697 15.4897 10.1505 15.2194 10.1505H3.68242C3.41207 10.1505 3.19289 10.3697 3.19289 10.64C3.19289 10.9104 3.41207 11.1296 3.68242 11.1296Z" fill="black"/>
<path d="M24.3705 2.06579V1.90874C24.3705 0.856371 23.5144 0.000203067 22.462 0.000203067C22.4346 0.000203067 5.3398 -0.000253834 5.30815 0.000203067C5.05659 0.00392355 4.89909 0.175588 4.72475 0.330412C4.18867 0.806373 0.48797 4.09241 0.16455 4.37954C0.0599193 4.47242 0 4.6057 0 4.74558V20.4035C0 20.6739 0.219182 20.8931 0.489537 20.8931C0.759892 20.8931 0.979074 20.6739 0.979074 20.4035V5.58686H4.17647C5.05626 5.58686 5.7721 4.8711 5.7721 3.99123V0.979277H22.462C22.9745 0.979277 23.3914 1.39623 23.3914 1.90874V2.06611C22.3622 2.14777 21.3747 2.48601 20.5102 3.05752C20.2847 3.20667 20.2228 3.51038 20.3719 3.73589C20.521 3.96141 20.8247 4.02341 21.0502 3.87427C21.8903 3.31887 22.8692 3.02528 23.881 3.02528C26.7151 3.02528 29.0209 5.331 29.0209 8.16516C29.0209 10.9993 26.7151 13.305 23.881 13.305C21.0469 13.305 18.7411 10.9993 18.7411 8.16516C18.7411 7.16689 19.0275 6.19911 19.5691 5.36644C19.7166 5.13982 19.6524 4.83657 19.4257 4.68918C19.1992 4.54174 18.8959 4.6059 18.7485 4.83259C18.1031 5.82452 17.7621 6.97689 17.7621 8.16522C17.7621 11.3744 20.2456 14.0143 23.3915 14.2645V31.5227C23.3915 32.0352 22.9746 32.4522 22.462 32.4522H1.90867C1.39609 32.4522 0.979139 32.0352 0.979139 31.5226V22.6881C0.979139 22.4177 0.759957 22.1986 0.489602 22.1986C0.219247 22.1986 6.52357e-05 22.4177 6.52357e-05 22.6881V31.5226C6.52357e-05 32.575 0.856298 33.4313 1.90867 33.4313H22.462C23.5144 33.4313 24.3706 32.5751 24.3706 31.5227V14.2645C27.5165 14.0142 30 11.3744 30 8.16516C30 4.95595 27.5165 2.31604 24.3705 2.06579ZM4.79309 3.9913C4.79309 4.33123 4.51653 4.60786 4.17653 4.60786H1.70522L4.79309 1.63943V3.9913Z" fill="#3316F2"/>
<path d="M3.68242 17.2051H20.6882C20.9586 17.2051 21.1778 16.986 21.1778 16.7156C21.1778 16.4453 20.9586 16.2261 20.6882 16.2261H3.68242C3.41207 16.2261 3.19289 16.4453 3.19289 16.7156C3.19289 16.986 3.41207 17.2051 3.68242 17.2051Z" fill="#FD4B1B"/>
<path d="M3.68242 19.6386H20.6882C20.9586 19.6386 21.1778 19.4194 21.1778 19.1491C21.1778 18.8787 20.9586 18.6595 20.6882 18.6595H3.68242C3.41207 18.6595 3.19289 18.8787 3.19289 19.1491C3.19289 19.4194 3.41207 19.6386 3.68242 19.6386Z" fill="black"/>
<path d="M3.68242 22.0721H20.6882C20.9586 22.0721 21.1778 21.8529 21.1778 21.5826C21.1778 21.3122 20.9586 21.093 20.6882 21.093H3.68242C3.41207 21.093 3.19289 21.3122 3.19289 21.5826C3.19289 21.8529 3.41207 22.0721 3.68242 22.0721Z" fill="#FD4B1B"/>
<path d="M3.68242 24.5056H11.6456C11.9159 24.5056 12.1351 24.2864 12.1351 24.016C12.1351 23.7457 11.9159 23.5265 11.6456 23.5265H3.68242C3.41207 23.5265 3.19289 23.7457 3.19289 24.016C3.19289 24.2864 3.41207 24.5056 3.68242 24.5056Z" fill="black"/>
</svg>
