<svg width="30" height="30" viewBox="0 0 30 30" fill="none" xmlns="http://www.w3.org/2000/svg">
<g clip-path="url(#clip0)">
<path d="M29.6144 2.04074C29.5389 1.95115 29.4309 1.89519 29.3142 1.88523L22.7852 1.32759L22.6669 0.386695C22.6364 0.144645 22.415 -0.0269178 22.1735 0.00349231L16.1169 0.764977C16.093 0.758766 16.0686 0.754078 16.0431 0.75191L7.71838 0.0408165C7.47867 0.0197228 7.26105 0.204059 7.24066 0.443297L7.11656 1.89642L0.668378 2.70713C0.429784 2.73713 0.255234 2.96172 0.285175 3.20048L3.57662 29.3806C3.59156 29.5001 3.56596 29.6148 3.61477 29.7303C3.6832 29.892 3.84609 30 4.02182 30H25.6962C25.9402 30 26.1379 29.8023 26.1379 29.5583V28.983L26.9934 29.056C27.2331 29.0768 27.4508 28.8929 27.4712 28.6536L29.7166 2.36306C29.7267 2.24629 29.6899 2.13039 29.6144 2.04074ZM3.58008 22.3255L1.21693 3.52855L3.58008 3.23148V22.3255ZM8.08336 0.958688L11.9494 1.28886L8.01293 1.7838L8.08336 0.958688ZM21.8455 0.935192L22.0712 2.73033H7.56621L21.8455 0.935192ZM26.6285 28.1382L26.1379 28.0963V15.1872C26.1379 14.9432 25.9402 14.7454 25.6962 14.7454C25.4521 14.7454 25.2544 14.9431 25.2544 15.1872V29.1165H4.46355V3.6138H25.2545V13.1258C25.2545 13.3698 25.4522 13.5675 25.6962 13.5675C25.9403 13.5675 26.138 13.3698 26.138 13.1258V3.17207C26.138 2.92808 25.9403 2.73033 25.6962 2.73033H22.9616L22.8979 2.2239L28.7988 2.72793L26.6285 28.1382Z" fill="#3316F2"/>
<path d="M23.3403 5.0863H20.9843C20.8366 5.0863 20.6987 5.16007 20.6168 5.283L19.617 6.78277C18.5408 6.01185 17.2232 5.55746 15.8014 5.55746C15.5574 5.55746 15.3596 5.75515 15.3596 5.99919V12.1246C15.3596 12.3686 15.5573 12.5663 15.8014 12.5663H21.9267C22.1708 12.5663 22.3685 12.3686 22.3685 12.1246C22.3685 10.2439 21.5736 8.54562 20.3025 7.34726L21.2208 5.96978H23.3403C23.5843 5.96978 23.7821 5.77209 23.7821 5.52804C23.7821 5.284 23.5842 5.0863 23.3403 5.0863ZM21.468 11.6828H16.2431V6.45792C17.3144 6.54066 18.3027 6.92269 19.1263 7.51888L18.7321 8.11015C18.609 8.29472 18.6451 8.55037 18.8151 8.69316C19.0142 8.86039 19.3231 8.81626 19.4672 8.60023L19.8045 8.09421C20.7437 9.02714 21.36 10.2848 21.468 11.6828Z" fill="black"/>
<path d="M23.3403 19.693H19.3445L18.6404 18.5665C19.781 17.3847 20.4837 15.7776 20.4837 14.0094C20.4837 13.7653 20.286 13.5677 20.042 13.5677H14.3583V7.884C14.3583 7.64001 14.1606 7.44226 13.9166 7.44226C10.2955 7.44226 7.34947 10.3883 7.34947 14.0094C7.34947 17.6305 10.2955 20.5765 13.9166 20.5765C15.4472 20.5765 16.8571 20.0501 17.975 19.1689L18.725 20.3689C18.8058 20.4981 18.9473 20.5765 19.0996 20.5765H23.3403C23.5843 20.5765 23.782 20.3788 23.782 20.1348C23.782 19.8907 23.5843 19.693 23.3403 19.693ZM17.1184 16.1312C16.9891 15.9242 16.7165 15.8614 16.5097 15.9907C16.3028 16.1199 16.2398 16.3925 16.3692 16.5994L17.5038 18.4148C16.5247 19.2135 15.2757 19.6931 13.9167 19.6931C10.7827 19.6931 8.23301 17.1434 8.23301 14.0094C8.23301 11.0241 10.5466 8.56896 13.4749 8.34279V14.0094C13.4749 14.2534 13.6727 14.4512 13.9167 14.4512H19.5833C19.4846 15.7286 18.9618 16.8889 18.1559 17.7913L17.1184 16.1312Z" fill="#FD4B1B"/>
<path d="M10.1472 22.0488H6.37773C6.1338 22.0488 5.93599 22.2465 5.93599 22.4906C5.93599 22.7346 6.13374 22.9323 6.37773 22.9323H10.1472C10.3912 22.9323 10.5889 22.7346 10.5889 22.4906C10.5889 22.2465 10.3912 22.0488 10.1472 22.0488Z" fill="black"/>
<path d="M15.8014 22.0488H12.0319C11.7879 22.0488 11.5902 22.2465 11.5902 22.4906C11.5902 22.7346 11.7879 22.9323 12.0319 22.9323H15.8014C16.0454 22.9323 16.2431 22.7346 16.2431 22.4906C16.2431 22.2465 16.0454 22.0488 15.8014 22.0488Z" fill="black"/>
<path d="M12.5031 24.4047H6.37773C6.1338 24.4047 5.93599 24.6024 5.93599 24.8464C5.93599 25.0904 6.13374 25.2881 6.37773 25.2881H12.5031C12.7471 25.2881 12.9449 25.0904 12.9449 24.8464C12.9449 24.6024 12.747 24.4047 12.5031 24.4047Z" fill="black"/>
<path d="M15.8014 24.4047H14.3878C14.1439 24.4047 13.946 24.6024 13.946 24.8464C13.946 25.0904 14.1438 25.2881 14.3878 25.2881H15.8014C16.0453 25.2881 16.2431 25.0904 16.2431 24.8464C16.243 24.6024 16.0453 24.4047 15.8014 24.4047Z" fill="black"/>
<path d="M8.26245 26.7605H6.37773C6.1338 26.7605 5.93599 26.9582 5.93599 27.2022C5.93599 27.4463 6.13374 27.644 6.37773 27.644H8.26245C8.50644 27.644 8.70419 27.4463 8.70419 27.2022C8.70419 26.9582 8.50644 26.7605 8.26245 26.7605Z" fill="black"/>
<path d="M15.8014 26.7605H10.1472C9.9033 26.7605 9.70549 26.9582 9.70549 27.2022C9.70549 27.4463 9.90324 27.644 10.1472 27.644H15.8014C16.0454 27.644 16.2431 27.4463 16.2431 27.2022C16.2431 26.9582 16.0454 26.7605 15.8014 26.7605Z" fill="black"/>
</g>
<defs>
<clipPath id="clip0">
<rect width="30" height="30" fill="white"/>
</clipPath>
</defs>
</svg>
