<svg width="30" height="30" viewBox="0 0 30 30" fill="none" xmlns="http://www.w3.org/2000/svg">
<path d="M22.2585 7.67957C20.5934 7.67957 19.2388 9.03425 19.2388 10.6993C19.2388 12.3644 20.5934 13.7191 22.2585 13.7191C23.9236 13.7191 25.2783 12.3644 25.2783 10.6993C25.2783 9.03414 23.9236 7.67957 22.2585 7.67957ZM22.2585 12.5472C21.2396 12.5472 20.4106 11.7183 20.4106 10.6993C20.4106 9.68037 21.2396 8.85144 22.2585 8.85144C23.2774 8.85144 24.1064 9.68037 24.1064 10.6993C24.1064 11.7181 23.2775 12.5472 22.2585 12.5472Z" fill="#FD4B1B"/>
<path d="M22.2791 26.4365C22.2645 26.4008 22.2463 26.3668 22.2252 26.3352C22.2041 26.3029 22.1795 26.273 22.1525 26.2461C22.1256 26.2191 22.0957 26.1945 22.0635 26.1734C22.0318 26.1523 21.9979 26.1342 21.9621 26.1195C21.927 26.1049 21.89 26.0932 21.8525 26.0861C21.777 26.0709 21.6996 26.0709 21.624 26.0861C21.5865 26.0932 21.5496 26.1049 21.5145 26.1195C21.4787 26.1342 21.4447 26.1523 21.4131 26.1734C21.3809 26.1945 21.351 26.2191 21.324 26.2461C21.2971 26.273 21.2725 26.3029 21.2514 26.3352C21.2303 26.3668 21.2121 26.4008 21.1975 26.4365C21.1828 26.4717 21.1711 26.5086 21.1641 26.5461C21.1564 26.5836 21.1523 26.6223 21.1523 26.6603C21.1523 26.6984 21.1564 26.7371 21.1641 26.7746C21.1711 26.8121 21.1828 26.849 21.1975 26.8842C21.2121 26.9199 21.2303 26.9539 21.2514 26.9855C21.2725 27.0178 21.2971 27.0477 21.324 27.0746C21.3374 27.088 21.3516 27.1009 21.3664 27.113C21.3813 27.1252 21.3969 27.1367 21.4131 27.1473C21.4447 27.1684 21.4787 27.1865 21.5145 27.2012C21.5496 27.2158 21.5865 27.2275 21.624 27.2346C21.6615 27.2422 21.7002 27.2463 21.7383 27.2463C21.7764 27.2463 21.815 27.2422 21.8525 27.2346C21.89 27.2275 21.927 27.2158 21.9621 27.2012C21.9979 27.1865 22.0318 27.1684 22.0635 27.1473C22.0796 27.1367 22.0952 27.1252 22.1102 27.113C22.125 27.1009 22.1391 27.088 22.1525 27.0746C22.1795 27.0477 22.2041 27.0178 22.2252 26.9855C22.2463 26.9539 22.2645 26.9199 22.2791 26.8842C22.2938 26.849 22.3055 26.8121 22.3131 26.7746C22.3207 26.7371 22.3242 26.6984 22.3242 26.6603C22.3242 26.6223 22.3207 26.5836 22.3131 26.5461C22.3055 26.5085 22.2938 26.4716 22.2791 26.4365Z" fill="black"/>
<path d="M13.0575 3.24927C13.0429 3.21411 13.0247 3.18013 13.0036 3.1479C12.9825 3.11626 12.9579 3.08579 12.931 3.05884C12.904 3.03188 12.8741 3.00728 12.8419 2.98618C12.8102 2.96509 12.7763 2.94692 12.7405 2.93228C12.7054 2.91763 12.6685 2.90649 12.631 2.89888C12.5554 2.88364 12.478 2.88364 12.4024 2.89888C12.3649 2.90649 12.328 2.91763 12.2923 2.93228C12.2571 2.94692 12.2231 2.96509 12.1915 2.98618C12.1593 3.00728 12.1294 3.03188 12.1024 3.05884C12.0755 3.08579 12.0509 3.11626 12.0292 3.1479C12.0081 3.18013 11.9905 3.21411 11.9759 3.24927C11.9612 3.28442 11.9495 3.32134 11.9425 3.35884C11.9349 3.39692 11.9308 3.43501 11.9308 3.47368C11.9308 3.51177 11.9349 3.54985 11.9425 3.58794C11.9495 3.62544 11.9612 3.66235 11.9759 3.69751C11.9905 3.73267 12.0081 3.76665 12.0292 3.79888C12.0509 3.83052 12.0755 3.86099 12.1024 3.88794C12.1294 3.91489 12.1593 3.9395 12.1915 3.9606C12.2231 3.98169 12.2571 3.99985 12.2923 4.0145C12.328 4.02915 12.3649 4.04028 12.4024 4.0479C12.4399 4.05552 12.4786 4.05962 12.5167 4.05962C12.5548 4.05962 12.5935 4.05552 12.631 4.0479C12.6685 4.04028 12.7054 4.02915 12.7405 4.0145C12.7763 3.99985 12.8102 3.98169 12.8419 3.9606C12.8741 3.9395 12.904 3.91489 12.931 3.88794C12.9579 3.86099 12.9825 3.83052 13.0036 3.79888C13.0247 3.76665 13.0429 3.73267 13.0575 3.69751C13.0722 3.66235 13.0839 3.62544 13.0909 3.58794C13.0985 3.54985 13.1026 3.51177 13.1026 3.47368C13.1026 3.43501 13.0985 3.39692 13.0909 3.35884C13.0839 3.32134 13.0722 3.28442 13.0575 3.24927Z" fill="black"/>
<path d="M26.7262 2.88983C26.3749 1.40454 25.0387 0.295654 23.4476 0.295654H5.0635C2.2715 0.295596 0 2.5671 0 5.35909V23.7432C0 25.569 1.45998 27.0593 3.27375 27.1104C3.62508 28.5957 4.96125 29.7046 6.55242 29.7046H26.6303C28.4883 29.7046 30 28.193 30 26.3349V21.9135V6.25704C30 4.43126 28.54 2.94099 26.7262 2.88983ZM28.8281 26.335C28.8281 27.5469 27.8422 28.5329 26.6303 28.5329H6.55242C5.61434 28.5329 4.81207 27.9419 4.49725 27.113C4.40531 26.871 4.35457 26.6089 4.35457 26.335V25.9411V23.2265L11.0767 11.8286C11.2814 11.4816 11.6464 11.279 12.0468 11.2854C12.4496 11.2924 12.8051 11.5076 12.9978 11.8615L15.8921 17.176L20.0992 24.9012C20.2055 25.0965 20.4066 25.207 20.6143 25.207C20.709 25.207 20.805 25.184 20.894 25.1355C21.1782 24.9807 21.2831 24.6249 21.1284 24.3407L19.7631 21.8338C20.3626 21.8614 20.9521 21.6673 21.4216 21.2778L24.0567 19.0919C24.4792 18.7414 25.1032 18.7568 25.508 19.1279L25.6455 19.254L26.8174 20.3282L28.8281 22.1713V26.335ZM28.8281 20.5816L26.8174 18.7383L25.6455 17.846C24.882 17.5267 23.9741 17.6378 23.3084 18.19L20.6734 20.3758C20.3836 20.6163 20.0052 20.7135 19.6354 20.6424C19.2655 20.5714 18.9501 20.3409 18.77 20.0102L16.9212 16.6155L15.8889 14.7199V14.7199L14.027 11.3009C13.6298 10.5717 12.8971 10.1279 12.0669 10.1137C11.2369 10.1007 10.4892 10.518 10.0673 11.2332L4.35451 20.9197V6.25704C4.35451 5.04515 5.34047 4.05919 6.55236 4.05919H10.173C10.4966 4.05919 10.7589 3.79687 10.7589 3.47325C10.7589 3.14964 10.4966 2.88731 10.173 2.88731H6.55236C4.6943 2.88731 3.18264 4.39897 3.18264 6.25704V23.0665V25.9325C2.05805 25.8371 1.17188 24.892 1.17188 23.7432V5.35909C1.17188 3.21321 2.91768 1.46747 5.0635 1.46747H23.4476C24.3857 1.46747 25.1879 2.05839 25.5028 2.88737H14.8605C14.5369 2.88737 14.2746 3.1497 14.2746 3.47331C14.2746 3.79692 14.5369 4.05925 14.8605 4.05925H25.6454L26.8173 4.0678C27.942 4.16308 28.8281 5.10819 28.8281 6.25704V20.5816Z" fill="#3316F2"/>
</svg>
