<svg width="30" height="30" viewBox="0 0 30 30" fill="none" xmlns="http://www.w3.org/2000/svg">
<path d="M15 0H8.5C8.22388 0 8 0.223877 8 0.5V4H0.5C0.223877 4 0 4.22388 0 4.5V29.5C0 29.7761 0.223877 30 0.5 30H15C15.2761 30 15.5 29.7761 15.5 29.5V0.5C15.5 0.223877 15.2761 0 15 0ZM14.5 26H9V25H14.5V26ZM1 7.5H8V22.5H1V7.5ZM14.5 5.5H9V4H14.5V5.5ZM1 23.5H8V25H1V23.5ZM9 24V6.5H14.5V24H9ZM14.5 1V3H9V1H14.5ZM8 5V6.5H1V5H8ZM1 26H8V29H1V26ZM9 29V27H14.5V29H9Z" fill="#3316F2"/>
<path d="M29.9839 27.3739L23.9839 4.37393C23.9504 4.24503 23.867 4.13492 23.7517 4.06778C23.6367 4.00089 23.4998 3.98258 23.3711 4.017L15.8711 6.017C15.6055 6.0878 15.4468 6.35977 15.5161 6.62589L21.5161 29.6259C21.5496 29.7548 21.6333 29.8649 21.7485 29.9318C21.8635 29.9984 22.0005 30.0165 22.1289 29.9818L29.6289 27.9818C29.8941 27.911 30.0525 27.6396 29.9839 27.3739ZM17.406 9.90885L23.9399 8.1669L24.1751 9.06681L17.6416 10.8114L17.406 9.90885ZM24.4275 10.037L27.3274 21.1608L20.7959 22.9035L17.896 11.779L24.4275 10.037ZM27.582 22.1288L28.094 24.091L21.5601 25.8329L21.0501 23.8715L27.582 22.1288ZM23.1431 5.11246L23.6875 7.19986L17.1536 8.94132L16.6096 6.85489L23.1431 5.11246ZM22.3569 28.8874L21.8125 26.8L28.3464 25.0575L28.8904 27.144L22.3569 28.8874Z" fill="#FD4B1B"/>
<path d="M6.5 9H2.5C2.22388 9 2 9.22388 2 9.5V13.5C2 13.7761 2.22388 14 2.5 14H6.5C6.77612 14 7 13.7761 7 13.5V9.5C7 9.22388 6.77612 9 6.5 9ZM6 13H3V10H6V13Z" fill="black"/>
</svg>
