<svg width="30" height="30" viewBox="0 0 30 30" fill="none" xmlns="http://www.w3.org/2000/svg">
<path d="M15 7.38281C14.6766 7.38281 14.4141 7.64534 14.4141 7.96875C14.4141 8.29216 14.6766 8.55469 15 8.55469C15.3234 8.55469 15.5859 8.29216 15.5859 7.96875C15.5859 7.64534 15.3234 7.38281 15 7.38281Z" fill="black"/>
<path d="M5.27344 17.9297C5.59685 17.9297 5.85938 17.6672 5.85938 17.3438C5.85938 17.0203 5.59685 16.7578 5.27344 16.7578C4.95003 16.7578 4.6875 17.0203 4.6875 17.3438C4.6875 17.6672 4.95003 17.9297 5.27344 17.9297Z" fill="black"/>
<path d="M19.6875 1.52344C14.4125 1.52344 10.0829 5.16037 9.74808 9.74144C4.72435 9.99344 0 13.616 0 18.5156C0 20.5632 0.810242 22.5471 2.28516 24.1191C2.57698 25.3221 2.22267 26.5972 1.34354 27.4763C1.17599 27.6439 1.12587 27.8959 1.21651 28.1149C1.30714 28.3337 1.52069 28.4766 1.75781 28.4766C3.42888 28.4766 5.03929 27.8213 6.23589 26.6666C7.40158 27.0639 8.9225 27.3047 10.3125 27.3047C15.5869 27.3047 19.9159 23.6687 20.2517 19.0885C21.4785 19.034 22.7545 18.8074 23.7641 18.4634C24.9607 19.6181 26.5711 20.2734 28.2422 20.2734C28.4793 20.2734 28.6929 20.1306 28.7835 19.9118C28.8741 19.6928 28.824 19.4408 28.6565 19.2732C27.7773 18.3941 27.423 17.119 27.7148 15.916C29.1898 14.344 30 12.3601 30 10.3125C30 5.22148 24.9117 1.52344 19.6875 1.52344ZM10.3125 26.1328C8.9296 26.1328 7.35374 25.8614 6.29814 25.4414C6.07201 25.3512 5.8136 25.4105 5.64903 25.5901C4.94156 26.3635 4.02168 26.9028 3.01941 27.1507C3.5717 26.0925 3.71269 24.8451 3.37669 23.6632C3.35014 23.57 3.30093 23.4849 3.23341 23.4155C1.90407 22.0464 1.17188 20.3062 1.17188 18.5156C1.17188 14.3866 5.35767 10.8984 10.3125 10.8984C14.9913 10.8984 19.1016 14.152 19.1016 18.5156C19.1016 22.7158 15.1588 26.1328 10.3125 26.1328ZM26.7666 15.2124C26.6991 15.282 26.6499 15.3671 26.6233 15.4601C26.2873 16.642 26.4283 17.8894 26.9806 18.9475C25.9783 18.6999 25.0584 18.1604 24.351 17.387C24.1864 17.2076 23.928 17.1481 23.7019 17.2382C22.787 17.6022 21.4819 17.8542 20.2499 17.915C20.0787 15.6992 18.9734 13.6166 17.0837 12.0703H24.7266C25.0502 12.0703 25.3125 11.808 25.3125 11.4844C25.3125 11.1607 25.0502 10.8984 24.7266 10.8984H15.2836C13.9536 10.2214 12.4601 9.82658 10.9229 9.74373C11.2596 5.80833 15.062 2.69531 19.6875 2.69531C24.6423 2.69531 28.8281 6.18347 28.8281 10.3125C28.8281 12.103 28.0959 13.8432 26.7666 15.2124Z" fill="#3316F2"/>
<path d="M15 16.7578H7.61719C7.29355 16.7578 7.03125 17.0201 7.03125 17.3438C7.03125 17.6674 7.29355 17.9297 7.61719 17.9297H15C15.3236 17.9297 15.5859 17.6674 15.5859 17.3438C15.5859 17.0201 15.3236 16.7578 15 16.7578Z" fill="#FD4B1B"/>
<path d="M15 20.2734H5.27344C4.9498 20.2734 4.6875 20.5357 4.6875 20.8594C4.6875 21.183 4.9498 21.4453 5.27344 21.4453H15C15.3236 21.4453 15.5859 21.183 15.5859 20.8594C15.5859 20.5357 15.3236 20.2734 15 20.2734Z" fill="black"/>
<path d="M24.7266 7.38281H17.3438C17.0201 7.38281 16.7578 7.64511 16.7578 7.96875C16.7578 8.29239 17.0201 8.55469 17.3438 8.55469H24.7266C25.0502 8.55469 25.3125 8.29239 25.3125 7.96875C25.3125 7.64511 25.0502 7.38281 24.7266 7.38281Z" fill="#FD4B1B"/>
</svg>
