<svg width="30" height="30" viewBox="0 0 30 30" fill="none" xmlns="http://www.w3.org/2000/svg">
<path d="M21 3.25C19.8969 3.25 19 4.14701 19 5.24998V5.6115L7.31399 10.2855C7.1245 10.3621 6.99998 10.5455 6.99998 10.75V17.75C6.99998 17.9545 7.1245 18.138 7.31399 18.214L19 22.888V23.25C19 24.3531 19.897 25.25 21 25.25C22.1029 25.25 22.9999 24.353 22.9999 23.25V5.24998C22.9999 4.14695 22.103 3.25 21 3.25ZM22 23.25C22 23.8015 21.5515 24.25 21 24.25C20.4484 24.25 19.9999 23.8015 19.9999 23.25V22.55C19.9999 22.3449 19.8754 22.1615 19.6855 22.0855L7.99995 17.4115V11.0885L19.6855 6.41447C19.8755 6.33795 19.9999 6.15449 19.9999 5.95V5.24998C19.9999 4.6985 20.4484 4.24996 21 4.24996C21.5515 4.24996 22 4.69844 22 5.24998V23.25Z" fill="#3316F2"/>
<path d="M7.5 10.2499H4.00002C1.79449 10.2499 0 12.0444 0 14.2499C0 16.4554 1.79449 18.2499 4.00002 18.2499H7.5C7.77598 18.2499 7.99998 18.0265 7.99998 17.7499V10.7499C7.99998 10.4739 7.77598 10.2499 7.5 10.2499ZM7.00002 17.2499H4.00002C2.34551 17.2499 1.00002 15.9044 1.00002 14.2499C1.00002 12.5954 2.34551 11.2499 4.00002 11.2499H7.00002V17.2499Z" fill="#3316F2"/>
<path d="M25.658 12.2756L22.658 11.2756C22.505 11.2251 22.3385 11.2506 22.2075 11.3446C22.077 11.4386 22 11.5896 22 11.7501V16.7501C22 16.9106 22.077 17.0616 22.2075 17.1561C22.294 17.2181 22.3965 17.2501 22.5 17.2501C22.553 17.2501 22.6065 17.2416 22.658 17.2241L25.658 16.2241C25.8625 16.1566 26 15.9655 26 15.75V12.75C26 12.5346 25.8625 12.3441 25.658 12.2756ZM25 15.3896L23 16.0561V12.4436L25 13.1101V15.3896Z" fill="#FD4B1B"/>
<path d="M9.95341 23.9966L9.45144 23.4941L7.98495 17.6291C7.92946 17.4066 7.72943 17.2501 7.49997 17.2501H3.49989C3.3469 17.2501 3.20288 17.3201 3.1079 17.4391C3.01292 17.5591 2.97788 17.7156 3.01292 17.8647L5.0129 26.3647C5.06739 26.5942 5.27188 26.7502 5.4994 26.7502C5.53093 26.7502 5.56239 26.7472 5.59438 26.7407L9.34937 26.0157C9.35435 26.0147 9.35939 26.0137 9.36437 26.0127C9.58439 25.9632 9.78536 25.8532 9.94538 25.6957C10.1734 25.4702 10.2999 25.1702 10.3019 24.8492C10.3039 24.5286 10.1809 24.2266 9.95341 23.9966ZM9.2429 24.9836C9.21741 25.0091 9.18542 25.0266 9.15038 25.0356L5.87687 25.6681L4.13136 18.2501H7.10939L8.5154 23.8711C8.53738 23.9591 8.5829 24.0396 8.64689 24.1036L9.2449 24.7016C9.2954 24.7521 9.30238 24.8116 9.30238 24.8431C9.30191 24.8736 9.29394 24.9331 9.2429 24.9836Z" fill="#3316F2"/>
<path d="M29.9999 13.75H26.9999V14.75H29.9999V13.75Z" fill="black"/>
<path d="M29.2415 7.82222L26.7418 9.32251L27.2564 10.1799L29.7561 8.67959L29.2415 7.82222Z" fill="black"/>
<path d="M27.2606 18.3208L26.7461 19.1783L29.2462 20.6784L29.7607 19.8209L27.2606 18.3208Z" fill="black"/>
<path d="M20 5.74988H18.9999V22.7499H20V5.74988Z" fill="#FD4B1B"/>
<path d="M5.99999 12.2501H4.99997V14.2501H5.99999V12.2501Z" fill="#FD4B1B"/>
<path d="M4.00006 12.2501H3.00005V14.2501H4.00006V12.2501Z" fill="#FD4B1B"/>
</svg>
