<svg width="30" height="30" viewBox="0 0 30 30" fill="none" xmlns="http://www.w3.org/2000/svg">
<g clip-path="url(#clip0)">
<path d="M25.4903 10.0249C25.4899 10.0249 25.4896 10.0249 25.4893 10.0249H0.429524C0.192584 10.0247 0.000250843 10.2165 2.45244e-07 10.4534C2.45244e-07 10.4537 2.45244e-07 10.4541 2.45244e-07 10.4544V22.4831C-0.000250352 22.72 0.191582 22.9124 0.428522 22.9126C0.428835 22.9126 0.429211 22.9126 0.429524 22.9126H17.4701C17.7073 22.9126 17.8997 22.7203 17.8997 22.4831C17.8997 22.2459 17.7073 22.0536 17.4701 22.0536H0.859048V10.884H25.0597V11.958C25.0595 12.195 25.2513 12.3873 25.4882 12.3875C25.4886 12.3875 25.4889 12.3875 25.4893 12.3875C25.7262 12.3878 25.9185 12.196 25.9188 11.959C25.9188 11.9587 25.9188 11.9583 25.9188 11.958V10.4544C25.919 10.2175 25.7272 10.0252 25.4903 10.0249Z" fill="#3316F2"/>
<path d="M22.5764 8.03078L2.52858 3.52004C2.41731 3.49517 2.30072 3.51534 2.20431 3.57617C2.10801 3.6375 2.03991 3.73442 2.01485 3.84581L1.01247 8.35655C0.960967 8.58823 1.10707 8.81778 1.33874 8.86928C1.57042 8.92077 1.79997 8.77468 1.85146 8.543L2.76013 4.45276L22.3879 8.86878C22.419 8.87598 22.4507 8.87955 22.4826 8.8793C22.7198 8.87886 22.9118 8.68621 22.9114 8.44903C22.911 8.24849 22.7719 8.07495 22.5764 8.03078Z" fill="#3316F2"/>
<path d="M20.142 5.54533L8.11329 0.533385C7.90423 0.44624 7.66334 0.535766 7.56197 0.738373L6.55958 2.74315C6.44638 2.95253 6.52431 3.21409 6.73375 3.32729C6.94312 3.4405 7.20468 3.36257 7.31789 3.15313C7.32234 3.14492 7.32654 3.13653 7.33042 3.12801V3.12901L8.15288 1.48309L19.8102 6.34016C20.0297 6.43175 20.2819 6.32813 20.3735 6.10861C20.4651 5.88921 20.3615 5.63699 20.142 5.54533Z" fill="black"/>
<path d="M20.4457 12.0297H16.4678C16.2306 12.0297 16.0382 12.222 16.0382 12.4592C16.0382 12.6964 16.2306 12.8887 16.4678 12.8887H20.4457C20.6829 12.8887 20.8752 12.6964 20.8752 12.4592C20.8752 12.222 20.6829 12.0297 20.4457 12.0297Z" fill="black"/>
<path d="M12.4581 12.0585C10.0222 12.0585 8.04758 14.0331 8.04758 16.469C8.05008 18.9038 10.0233 20.877 12.4581 20.8795C14.894 20.8795 16.8686 18.9048 16.8686 16.469C16.8686 14.0331 14.894 12.0585 12.4581 12.0585ZM12.4581 20.0776C10.4651 20.0776 8.84949 18.462 8.84949 16.469C8.85168 14.4769 10.466 12.8626 12.4581 12.8604C14.4511 12.8604 16.0667 14.476 16.0667 16.469C16.0667 18.462 14.4511 20.0776 12.4581 20.0776Z" fill="#FD4B1B"/>
<path d="M24.4869 13.4615C21.8306 13.4615 18.9738 14.089 18.9738 15.4663V27.495C18.9738 28.8723 21.8306 29.4998 24.4869 29.4998C27.1432 29.4998 30 28.8723 30 27.495V15.4663C30 14.089 27.1432 13.4615 24.4869 13.4615ZM28.9976 27.4875C28.922 27.7656 27.4189 28.4974 24.4869 28.4974C21.5549 28.4974 20.0518 27.7656 19.9761 27.495V26.7071C21.0427 27.2444 22.8044 27.495 24.4869 27.495C26.1694 27.495 27.9316 27.2419 28.9976 26.7066V27.4875ZM28.9976 25.4827C28.922 25.7608 27.4189 26.4926 24.4869 26.4926C21.5549 26.4926 20.0518 25.7608 19.9761 25.4902V24.7023C21.0427 25.2396 22.8044 25.4902 24.4869 25.4902C26.1694 25.4902 27.9316 25.2371 28.9976 24.7018V25.4827ZM28.9976 23.4779C28.922 23.7561 27.4189 24.4878 24.4869 24.4878C21.5549 24.4878 20.0518 23.7561 19.9761 23.4854V22.6975C21.0427 23.2348 22.8044 23.4854 24.4869 23.4854C26.1694 23.4854 27.9316 23.2323 28.9976 22.697V23.4779ZM28.9976 21.4731C28.922 21.7513 27.4189 22.483 24.4869 22.483C21.5549 22.483 20.0518 21.7513 19.9761 21.4806V20.6928C21.0427 21.2301 22.8044 21.4806 24.4869 21.4806C26.1694 21.4806 27.9316 21.2275 28.9976 20.6923V21.4731ZM28.9976 19.4684C28.922 19.7465 27.4189 20.4783 24.4869 20.4783C21.5549 20.4783 20.0518 19.7465 19.9761 19.4759V18.688C21.0427 19.2228 22.8044 19.4759 24.4869 19.4759C26.1694 19.4759 27.9316 19.2228 28.9976 18.6875V19.4684ZM28.9976 17.4636C28.922 17.7417 27.4189 18.4735 24.4869 18.4735C21.5549 18.4735 20.0518 17.7417 19.9761 17.4711V16.6832C21.0427 17.218 22.8044 17.4711 24.4869 17.4711C26.1694 17.4711 27.9316 17.218 28.9976 16.6827V17.4636ZM24.4869 16.4687C21.5594 16.4687 20.0568 15.739 19.9761 15.4753V15.4723C20.0568 15.1932 21.5594 14.4639 24.4869 14.4639C27.3938 14.4639 28.8974 15.1826 28.9976 15.4663C28.8974 15.75 27.3938 16.4687 24.4869 16.4687Z" fill="#3316F2"/>
<path d="M8.44869 20.0483H4.66016L2.86388 18.0836V14.8258L4.84761 12.8887H8.44869C8.68588 12.8887 8.87822 12.6964 8.87822 12.4592C8.87822 12.222 8.68588 12.0297 8.44869 12.0297H4.6732C4.56093 12.0294 4.45298 12.0731 4.37248 12.1515L2.13364 14.3352C2.05001 14.4329 2.00415 14.5574 2.00433 14.686V18.2505C2.00433 18.3577 2.04437 18.461 2.1166 18.5402L4.15296 20.7675C4.23434 20.8566 4.34949 20.9074 4.47021 20.9073H8.44869C8.68588 20.9073 8.87822 20.715 8.87822 20.4778C8.87822 20.2406 8.68595 20.0483 8.44869 20.0483Z" fill="black"/>
<path d="M12.7088 15.9676H12.2076C12.0518 15.9676 11.957 15.8803 11.957 15.8423C11.957 15.8042 12.0518 15.717 12.2076 15.717H13.4606C13.7374 15.717 13.9618 15.4925 13.9618 15.2158C13.9618 14.939 13.7374 14.7146 13.4606 14.7146H12.9594C12.9594 14.4378 12.735 14.2134 12.4582 14.2134C12.1814 14.2134 11.957 14.4378 11.957 14.7146V14.7371C11.4012 14.8156 10.98 15.2789 10.9547 15.8397C10.9905 16.4969 11.5503 17.0018 12.2076 16.9699H12.7088C12.8647 16.9699 12.9594 17.0571 12.9594 17.0952C12.9594 17.1333 12.8647 17.2205 12.7088 17.2205H11.4558C11.1791 17.2205 10.9547 17.4449 10.9547 17.7217C10.9547 17.9985 11.1791 18.2229 11.4558 18.2229H11.957C11.957 18.4997 12.1814 18.7241 12.4582 18.7241C12.735 18.7241 12.9594 18.4997 12.9594 18.2229V18.2004C13.5153 18.1219 13.9364 17.6586 13.9618 17.0977C13.9259 16.4406 13.3662 15.9357 12.7088 15.9676Z" fill="#FD4B1B"/>
</g>
<defs>
<clipPath id="clip0">
<rect width="30" height="30" fill="white"/>
</clipPath>
</defs>
</svg>
