<svg width="30" height="30" viewBox="0 0 30 30" fill="none" xmlns="http://www.w3.org/2000/svg">
<path d="M5.60863 10.4483C7.15615 10.4483 8.41516 9.18925 8.41516 7.64173C8.41516 6.09421 7.15615 4.83521 5.60863 4.83521C4.06111 4.83521 2.80217 6.09421 2.80217 7.64173C2.80217 9.18925 4.06106 10.4483 5.60863 10.4483ZM5.60863 5.71411C6.67158 5.71411 7.53625 6.57884 7.53625 7.64173C7.53625 8.70462 6.67152 9.56935 5.60863 9.56935C4.54574 9.56935 3.68108 8.70462 3.68108 7.64173C3.68102 6.57884 4.54574 5.71411 5.60863 5.71411Z" fill="#FD4B1B"/>
<path d="M9.06076 7.64173C9.06076 9.18925 10.3198 10.4483 11.8673 10.4483C13.4148 10.4483 14.6737 9.18925 14.6737 7.64173C14.6737 6.09421 13.4148 4.83521 11.8673 4.83521C10.3198 4.83521 9.06076 6.09421 9.06076 7.64173ZM13.7948 7.64173C13.7948 8.70462 12.9301 9.56935 11.8673 9.56935C10.8043 9.56935 9.93967 8.70462 9.93967 7.64173C9.93967 6.57884 10.8044 5.71411 11.8673 5.71411C12.9302 5.71411 13.7948 6.57884 13.7948 7.64173Z" fill="#FD4B1B"/>
<path d="M18.1259 10.4483C19.6734 10.4483 20.9324 9.18925 20.9324 7.64173C20.9324 6.09421 19.6734 4.83521 18.1259 4.83521C16.5784 4.83521 15.3194 6.09421 15.3194 7.64173C15.3194 9.18925 16.5784 10.4483 18.1259 10.4483ZM18.1259 5.71411C19.1889 5.71411 20.0535 6.57884 20.0535 7.64173C20.0535 8.70462 19.1888 9.56935 18.1259 9.56935C17.063 9.56935 16.1983 8.70462 16.1983 7.64173C16.1983 6.57884 17.063 5.71411 18.1259 5.71411Z" fill="#FD4B1B"/>
<path d="M15.5706 2.99609H3.24152C2.99876 2.99609 2.80206 3.19285 2.80206 3.43555C2.80206 3.67824 2.99876 3.875 3.24152 3.875H15.5706C15.8133 3.875 16.01 3.67824 16.01 3.43555C16.01 3.19285 15.8133 2.99609 15.5706 2.99609Z" fill="black"/>
<path d="M5.60863 19.2105C7.15615 19.2105 8.41516 17.9515 8.41516 16.4039C8.41516 14.8564 7.15615 13.5974 5.60863 13.5974C4.06111 13.5974 2.80217 14.8564 2.80217 16.4039C2.80217 17.9515 4.06106 19.2105 5.60863 19.2105ZM5.60863 14.4763C6.67158 14.4763 7.53625 15.341 7.53625 16.4039C7.53625 17.4668 6.67152 18.3316 5.60863 18.3316C4.54574 18.3316 3.68108 17.4668 3.68108 16.4039C3.68108 15.341 4.54574 14.4763 5.60863 14.4763Z" fill="black"/>
<path d="M9.06076 16.4039C9.06076 17.9515 10.3198 19.2105 11.8673 19.2105C13.4148 19.2105 14.6737 17.9515 14.6737 16.4039C14.6737 14.8564 13.4148 13.5974 11.8673 13.5974C10.3198 13.5974 9.06076 14.8564 9.06076 16.4039ZM13.7948 16.4039C13.7948 17.4668 12.9301 18.3316 11.8673 18.3316C10.8043 18.3316 9.93967 17.4668 9.93967 16.4039C9.93967 15.341 10.8044 14.4763 11.8673 14.4763C12.9302 14.4763 13.7948 15.341 13.7948 16.4039Z" fill="black"/>
<path d="M3.24152 12.637H15.5706C15.8133 12.637 16.01 12.4402 16.01 12.1975C16.01 11.9548 15.8133 11.7581 15.5706 11.7581H3.24152C2.99876 11.7581 2.80206 11.9548 2.80206 12.1975C2.80206 12.4402 2.99882 12.637 3.24152 12.637Z" fill="black"/>
<path d="M5.60863 28.2874C7.15615 28.2874 8.41516 27.0284 8.41516 25.4808C8.41516 23.9333 7.15615 22.6743 5.60863 22.6743C4.06111 22.6743 2.80217 23.9333 2.80217 25.4808C2.80217 27.0284 4.06106 28.2874 5.60863 28.2874ZM5.60863 23.5532C6.67158 23.5532 7.53625 24.4179 7.53625 25.4808C7.53625 26.5437 6.67152 27.4085 5.60863 27.4085C4.54574 27.4085 3.68108 26.5437 3.68108 25.4808C3.68108 24.4179 4.54574 23.5532 5.60863 23.5532Z" fill="#FD4B1B"/>
<path d="M9.06076 25.4808C9.06076 27.0284 10.3198 28.2874 11.8673 28.2874C13.4148 28.2874 14.6737 27.0284 14.6737 25.4808C14.6737 23.9333 13.4148 22.6743 11.8673 22.6743C10.3198 22.6743 9.06076 23.9333 9.06076 25.4808ZM13.7948 25.4808C13.7948 26.5437 12.9301 27.4085 11.8673 27.4085C10.8043 27.4085 9.93967 26.5437 9.93967 25.4808C9.93967 24.4179 10.8044 23.5532 11.8673 23.5532C12.9302 23.5532 13.7948 24.4179 13.7948 25.4808Z" fill="#FD4B1B"/>
<path d="M18.1259 28.2874C19.6734 28.2874 20.9324 27.0284 20.9324 25.4808C20.9324 23.9333 19.6734 22.6743 18.1259 22.6743C16.5784 22.6743 15.3194 23.9333 15.3194 25.4808C15.3194 27.0284 16.5784 28.2874 18.1259 28.2874ZM18.1259 23.5532C19.1889 23.5532 20.0535 24.4179 20.0535 25.4808C20.0535 26.5437 19.1888 27.4085 18.1259 27.4085C17.063 27.4085 16.1983 26.5437 16.1983 25.4808C16.1983 24.4179 17.063 23.5532 18.1259 23.5532Z" fill="#FD4B1B"/>
<path d="M3.24152 21.7139H15.5706C15.8133 21.7139 16.01 21.5171 16.01 21.2744C16.01 21.0317 15.8133 20.835 15.5706 20.835H3.24152C2.99876 20.835 2.80206 21.0317 2.80206 21.2744C2.80206 21.5171 2.99882 21.7139 3.24152 21.7139Z" fill="black"/>
<path d="M28.3494 5.40182L28.6224 4.71715C28.8667 4.10432 28.5669 3.40699 27.9541 3.1626L26.7633 2.68775C26.4663 2.56934 26.141 2.57367 25.8473 2.70006C25.5538 2.82633 25.327 3.0593 25.2087 3.35602L24.6644 4.72107C24.4433 4.8317 24.2459 4.99465 24.0935 5.20582C23.9701 5.37639 23.8463 5.55486 23.7224 5.7399V1.80352C23.7224 0.809063 22.9131 0 21.9183 0H1.81591C0.821455 0 0.0124512 0.809063 0.0124512 1.80352V23.7448C0.0124512 23.9875 0.20915 24.1842 0.451904 24.1842C0.694658 24.1842 0.891357 23.9875 0.891357 23.7448V1.80352C0.891357 1.29369 1.30608 0.878906 1.81591 0.878906H21.9183C22.4284 0.878906 22.8434 1.29369 22.8434 1.80352V7.16414C22.067 8.52135 21.3081 10.1106 20.6294 11.8126C20.3168 12.5965 20.0332 13.3755 19.7815 14.1368C19.3066 13.7889 18.7314 13.5973 18.1261 13.5973C16.5785 13.5973 15.3194 14.8563 15.3194 16.4039C15.3194 17.9515 16.5785 19.2105 18.1261 19.2105C18.2774 19.2105 18.4266 19.1987 18.5734 19.1753C18.318 21.2674 18.604 22.4939 19.4253 22.8215C19.5573 22.8741 19.6951 22.9003 19.8388 22.9003C20.6269 22.9003 21.5904 22.1108 22.7103 20.5447C22.7547 20.4827 22.799 20.4195 22.8434 20.3556V28.1965C22.8434 28.7063 22.4284 29.1211 21.9183 29.1211H1.81591C1.30608 29.1211 0.891357 28.7063 0.891357 28.1965V25.5026C0.891357 25.2599 0.694658 25.0631 0.451904 25.0631C0.20915 25.0631 0.0124512 25.2599 0.0124512 25.5026V28.1965C0.0124512 29.1909 0.821514 30 1.81591 30H21.9183C22.9131 30 23.7224 29.1909 23.7224 28.1965V18.979C24.5654 17.5513 25.3939 15.8412 26.1263 14.0043C26.6516 12.6863 27.096 11.3844 27.4472 10.1348C27.5128 9.90117 27.3767 9.65854 27.1431 9.59291C26.9094 9.52728 26.6667 9.6634 26.6011 9.89707C26.2582 11.1171 25.8238 12.3894 25.3099 13.6788C24.9 14.7068 24.4603 15.6926 24.0056 16.6078L20.3775 15.1613C20.6774 14.184 21.0358 13.1664 21.4458 12.1381C22.4609 9.59203 23.6541 7.31303 24.8057 5.72057C24.9925 5.46199 25.3307 5.36426 25.6285 5.48297L26.8539 5.9717C27.1516 6.09029 27.3299 6.39404 27.2875 6.71045C27.2252 7.17656 27.1351 7.6834 27.02 8.21695C26.9687 8.4542 27.1195 8.68805 27.3567 8.73926C27.5935 8.79053 27.8278 8.63977 27.8791 8.40252C27.9992 7.84623 28.0933 7.31613 28.1587 6.82705C28.1844 6.63492 28.1732 6.4452 28.1316 6.26479C28.8133 6.58102 29.1413 7.14562 29.1061 7.95041C29.0562 9.08543 27.9917 11.1625 27.0526 12.9951C25.9026 15.2391 25.2068 16.6537 25.3839 17.4295C25.4304 17.6332 25.6115 17.7712 25.8119 17.7712C25.8443 17.7712 25.8772 17.7676 25.9102 17.7601C26.1468 17.706 26.2947 17.4704 26.2408 17.2338C26.22 17.1431 26.2163 16.8285 26.6273 15.8689C26.9319 15.1577 27.3705 14.3019 27.8348 13.3959C28.8628 11.3899 29.9258 9.31559 29.9843 7.98891C30.0377 6.76869 29.4477 5.84807 28.3494 5.40182ZM16.1983 16.4039C16.1983 15.341 17.0631 14.4762 18.1261 14.4762C18.6454 14.4762 19.133 14.6811 19.4941 15.045C19.1512 16.1794 18.8872 17.2594 18.7145 18.24C18.5257 18.3006 18.3287 18.3316 18.1261 18.3316C17.0631 18.3316 16.1983 17.4669 16.1983 16.4039ZM23.6026 17.3933C23.0732 18.3916 22.53 19.286 21.9954 20.0335C20.7337 21.7978 19.9748 22.0948 19.7508 22.0051C19.5261 21.9155 19.18 21.1783 19.4785 19.0297C19.6049 18.1199 19.827 17.0967 20.1296 16.0086L23.6026 17.3933ZM25.9541 4.66664C25.8594 4.62885 25.7628 4.60184 25.6656 4.5832L26.025 3.68156C26.0564 3.60281 26.1166 3.541 26.1946 3.50748C26.2725 3.47396 26.3588 3.47279 26.4377 3.5042L27.6284 3.97904C27.7912 4.04391 27.8708 4.229 27.8059 4.39166L27.4463 5.29342C27.3629 5.24004 27.2741 5.19316 27.1793 5.15537L25.9541 4.66664Z" fill="#3316F2"/>
</svg>
