<svg width="30" height="30" viewBox="0 0 30 30" fill="none" xmlns="http://www.w3.org/2000/svg">
<path d="M7.5 8.90625C7.75888 8.90625 7.96875 8.69638 7.96875 8.4375C7.96875 8.17862 7.75888 7.96875 7.5 7.96875C7.24112 7.96875 7.03125 8.17862 7.03125 8.4375C7.03125 8.69638 7.24112 8.90625 7.5 8.90625Z" fill="black"/>
<path d="M11.25 8.90625C11.5089 8.90625 11.7188 8.69638 11.7188 8.4375C11.7188 8.17862 11.5089 7.96875 11.25 7.96875C10.9911 7.96875 10.7812 8.17862 10.7812 8.4375C10.7812 8.69638 10.9911 8.90625 11.25 8.90625Z" fill="black"/>
<path d="M7.96875 12.6562H9.84375C10.8778 12.6562 11.7187 11.8153 11.7187 10.7812H10.7812C10.7812 11.2983 10.3608 11.7188 9.84375 11.7188H7.96875V12.6562Z" fill="black"/>
<path d="M9.70641 6.69984C9.19031 6.18375 8.90625 5.4975 8.90625 4.76766V4.21875H7.96875V4.76766C7.96875 5.74781 8.35031 6.66937 9.04359 7.36266L9.70641 6.69984Z" fill="black"/>
<path d="M24.9243 18.2812C24.4448 18.2812 23.9943 18.4678 23.6554 18.8072L23.2434 19.2188H22.9687C22.1934 19.2188 21.5624 19.8497 21.5624 20.625V20.8495L18.8976 22.7147L17.5082 20.0902C18.0018 19.5117 18.2812 18.7739 18.2812 18.0033C18.2812 17.3377 18.0791 16.6973 17.6966 16.1522L16.0949 13.8694C15.6852 13.2853 15.4687 12.5995 15.4687 11.8866C15.4687 11.5139 15.5282 11.1464 15.6463 10.7944L16.0856 9.47531C16.2984 8.83687 16.4062 8.17219 16.4062 7.5C16.4062 6.82781 16.2984 6.16313 16.0856 5.52516L15.989 5.23594C15.0388 2.38453 12.3806 0.46875 9.37446 0.46875C6.36931 0.46875 3.71102 2.38453 2.7604 5.23641L2.66477 5.52469C2.45149 6.16313 2.34368 6.82781 2.34368 7.5C2.34368 8.17219 2.45149 8.83687 2.66431 9.47484L3.10399 10.7944C3.22165 11.1464 3.28118 11.5139 3.28118 11.8866C3.28118 12.5995 3.06462 13.2853 2.65493 13.8698L1.05321 16.1527C0.670712 16.6978 0.46868 17.3377 0.46868 18.0033C0.46868 18.8377 0.788368 19.6214 1.35274 20.2162C1.15727 20.8359 1.02884 21.4847 0.979149 22.1541L0.432587 29.5312H14.5312V25.6697L14.8331 26.0316C15.6932 27.0642 16.9574 27.6562 18.3013 27.6562C19.3204 27.6562 20.2785 27.2592 20.999 26.5387L26.1932 21.3445C26.5321 21.0056 26.7187 20.5552 26.7187 20.0761C26.7187 19.0861 25.9134 18.2812 24.9243 18.2812ZM1.82056 16.6908L3.42227 14.408C3.94306 13.6655 4.21868 12.7931 4.21868 11.8866C4.21868 11.4127 4.14274 10.9453 3.99368 10.4981L3.55399 9.17859C3.37259 8.63625 3.28118 8.07141 3.28118 7.5C3.28118 6.92859 3.37259 6.36375 3.55399 5.82094L3.64962 5.53266C4.47274 3.06469 6.77337 1.40625 9.37493 1.40625C11.9765 1.40625 14.2771 3.06469 15.0998 5.53266L15.1963 5.82141C15.3773 6.36375 15.4687 6.92859 15.4687 7.5C15.4687 8.07141 15.3773 8.63625 15.1959 9.17906L14.7566 10.4977C14.6071 10.9453 14.5312 11.4127 14.5312 11.8866C14.5312 12.7936 14.8068 13.6655 15.3276 14.408L16.9293 16.6908C17.2002 17.0775 17.3437 17.5312 17.3437 18.0033C17.3437 18.4163 17.2209 18.8105 17.0151 19.1592L16.4962 18.1791C15.502 16.3013 13.6879 14.9855 11.609 14.5959L11.5106 14.3011C12.7284 13.8211 13.5937 12.6361 13.5937 11.25V8.12109C13.5937 7.2675 13.0495 6.51234 12.2395 6.24234C11.3671 5.95125 10.7812 5.13797 10.7812 4.21875H9.84368C9.84368 5.54203 10.6874 6.7125 11.9432 7.13156C12.3698 7.27359 12.6562 7.67156 12.6562 8.12109V11.25C12.6562 12.5423 11.6048 13.5938 10.3124 13.5938H8.43743C7.14509 13.5938 6.09368 12.5423 6.09368 11.25V7.03125C6.09368 6.51422 6.51415 6.09375 7.03118 6.09375V5.15625C5.99712 5.15625 5.15618 5.99719 5.15618 7.03125V11.25C5.15618 12.6361 6.02149 13.8211 7.23884 14.3016L7.1329 14.6198C4.70712 15.3066 2.76977 17.0058 1.74884 19.2084C1.52712 18.8512 1.40618 18.4369 1.40618 18.0033C1.40618 17.5312 1.54962 17.0775 1.82056 16.6908ZM7.96868 17.3438V15.0755L8.15477 14.5167C8.24806 14.5252 8.34227 14.5312 8.43743 14.5312H10.3124C10.4076 14.5312 10.5018 14.5252 10.5951 14.5167L10.7812 15.0755V17.3438H7.96868ZM10.7676 18.2812C10.701 19.5877 10.2187 20.8167 9.37493 21.8091C8.53118 20.8167 8.04884 19.5872 7.98227 18.2812H10.7676ZM4.21868 28.5938H1.44227L1.88009 22.6786L4.21868 24.1402V28.5938ZM13.5937 20.1562V28.5938H5.15618V20.1562H4.21868V23.0344L1.98087 21.6356C2.40743 18.8423 4.35368 16.5258 7.03118 15.6253V17.9733C7.03118 19.8089 7.74556 21.5339 9.04352 22.8314L9.37493 23.1628L9.70634 22.8314C11.0043 21.5339 11.7187 19.8089 11.7187 17.9733V15.5733C13.3996 15.9727 14.8523 17.077 15.6679 18.6173L17.1524 21.4219L14.5312 23.0602V20.1562H13.5937ZM25.5304 20.6822L20.3362 25.8759C19.7924 26.4192 19.0701 26.7188 18.3013 26.7188C17.2368 26.7188 16.2351 26.2495 15.5535 25.4316L14.5312 24.2053V24.1664L17.5921 22.253L18.1237 23.257L17.0751 23.9911L17.6123 24.7594L22.4999 21.338V20.625C22.4999 20.3667 22.7099 20.1562 22.9687 20.1562H23.6315L24.3182 19.4695C24.4781 19.3102 24.6984 19.2188 24.9243 19.2188C25.3968 19.2188 25.7812 19.6031 25.7812 20.0761C25.7812 20.3048 25.6921 20.52 25.5304 20.6822Z" fill="#3316F2"/>
<path d="M25.3344 9.84375H23.9282V14.5312H24.8657V12.6562H25.3344C25.5932 12.6562 25.8032 12.8667 25.8032 13.125V14.5312H26.7407V13.125C26.7407 12.7636 26.5996 12.4369 26.375 12.1875C26.6 11.9381 26.7407 11.6114 26.7407 11.25C26.7407 10.4747 26.1097 9.84375 25.3344 9.84375ZM25.3344 11.7188H24.8657V10.7812H25.3344C25.5932 10.7812 25.8032 10.9917 25.8032 11.25C25.8032 11.5083 25.5932 11.7188 25.3344 11.7188Z" fill="#FD4B1B"/>
<path d="M22.0312 11.7188H21.0938V9.84375H20.1562V14.5312H21.0938V12.6562H22.0312V14.5312H22.9688V9.84375H22.0312V11.7188Z" fill="#FD4B1B"/>
<path d="M28.125 7.96875H18.75C17.9747 7.96875 17.3438 8.59969 17.3438 9.375V15C17.3438 15.7753 17.9747 16.4062 18.75 16.4062H20.625V17.1497C20.625 17.7736 21.1327 18.2812 21.7566 18.2812C22.0552 18.2812 22.3467 18.1603 22.5567 17.9498L24.1003 16.4062H28.125C28.9003 16.4062 29.5312 15.7753 29.5312 15V9.375C29.5312 8.59969 28.9003 7.96875 28.125 7.96875ZM28.5937 15C28.5937 15.2583 28.3837 15.4688 28.125 15.4688H23.7122L21.8934 17.287C21.7833 17.3981 21.5625 17.3081 21.5625 17.1497V15.4688H18.75C18.4912 15.4688 18.2812 15.2583 18.2812 15V9.375C18.2812 9.11672 18.4912 8.90625 18.75 8.90625H28.125C28.3837 8.90625 28.5937 9.11672 28.5937 9.375V15Z" fill="#FD4B1B"/>
</svg>
