<svg width="30" height="30" viewBox="0 0 30 30" fill="none" xmlns="http://www.w3.org/2000/svg">
<path d="M16.7248 5.67358L17.7401 11.7353H25.9816L26.977 5.67358H16.7248ZM24.8868 10.4413H18.835L18.2577 6.96749H25.4641L24.8868 10.4413Z" fill="#FD4B1B"/>
<path d="M19.2579 3.73234L18.4618 6.11096L19.6889 6.52168L20.485 4.14306L19.2579 3.73234Z" fill="black"/>
<path d="M24.4593 3.73541L23.2322 4.14612L24.0284 6.52473L25.2555 6.11402L24.4593 3.73541Z" fill="black"/>
<path d="M21.8608 0C17.3817 0 13.7287 3.65299 13.7287 8.13209C13.7287 12.6112 17.3817 16.2642 21.8608 16.2642C26.3399 16.2642 29.9929 12.6112 29.9929 8.13209C29.9929 3.65299 26.3399 0 21.8608 0ZM21.8608 14.9702C18.0884 14.9702 15.0227 11.9045 15.0227 8.13209C15.0227 4.35966 18.0884 1.29399 21.8608 1.29399C25.6332 1.29399 28.6989 4.35966 28.6989 8.13209C28.6989 11.9044 25.6332 14.9702 21.8608 14.9702Z" fill="#3316F2"/>
<path d="M26.2006 20.4446V28.7061H3.78508V20.4446H2.49109V30H27.4945V20.4446H26.2006Z" fill="#3316F2"/>
<path d="M21.6219 16.941C21.6219 18.5834 20.2782 19.9271 18.6358 19.9271C16.9935 19.9271 15.6498 18.5834 15.6498 16.941H14.3558C14.3558 19.3 16.2768 21.2211 18.6358 21.2211C20.9948 21.2211 22.9159 19.3 22.9159 16.941H21.6219Z" fill="#3316F2"/>
<path d="M14.3457 16.941C14.3457 18.5834 13.002 19.9271 11.3596 19.9271C9.71731 19.9271 8.37358 18.5834 8.37358 16.941H7.07968C7.07968 19.3 9.00075 21.2211 11.3597 21.2211C13.7187 21.2211 15.6398 19.3 15.6398 16.941H14.3457Z" fill="black"/>
<path d="M29.7541 15.5873L28.5895 12.2429L27.3652 12.671L28.5298 16.0154C28.8284 16.8813 28.7189 17.8667 28.2212 18.6431C27.7633 19.3598 27.0268 19.8177 26.2105 19.9072C26.111 19.9172 25.9915 19.9271 25.9019 19.9271C24.2596 19.9271 22.9159 18.5834 22.9159 16.941H21.622C21.622 19.3 23.543 21.2211 25.902 21.2211C26.0513 21.2211 26.2006 21.2111 26.3301 21.2012H26.3401C27.5544 21.0818 28.6393 20.395 29.3161 19.3399C30.0228 18.225 30.192 16.8216 29.7541 15.5873Z" fill="black"/>
<path d="M4.70074 6.67879H14.6742V5.38489H3.78504L0.241606 15.5873C-0.186429 16.8215 -0.0271405 18.225 0.679531 19.3397C1.35634 20.3948 2.44131 21.0816 3.65561 21.2011H3.6656C3.78504 21.211 3.92436 21.2209 4.08365 21.2209C6.44264 21.2209 8.36371 19.2999 8.36371 16.9409H7.06972C7.06972 18.5832 5.72599 19.9269 4.08365 19.9269C3.98408 19.9269 3.88461 19.917 3.77506 19.9071C2.95883 19.8275 2.2223 19.3596 1.76441 18.6429C1.26676 17.8566 1.14732 16.8712 1.45582 16.0052L4.70074 6.67879Z" fill="#3316F2"/>
</svg>
