<svg width="30" height="30" viewBox="0 0 30 30" fill="none" xmlns="http://www.w3.org/2000/svg">
<g clip-path="url(#clip0)">
<path d="M23.7584 25.1228C23.5155 25.1228 23.3189 25.3194 23.3189 25.5623V29.5606C23.3189 29.8032 23.5155 30 23.7584 30C24.001 30 24.1978 29.8032 24.1978 29.5606V25.5623C24.1978 25.3194 24.001 25.1228 23.7584 25.1228Z" fill="#FD4B1B"/>
<path d="M22.9271 19.0862C22.9067 19.0688 22.885 19.053 22.8623 19.04C22.3682 18.7001 21.7701 18.5005 21.1263 18.5005H17.1288V17.309C19.0931 16.5159 20.5188 14.6606 20.6891 12.4587C20.8607 12.5013 21.0377 12.524 21.216 12.524C22.4203 12.524 23.4002 11.5441 23.4002 10.3397C23.4002 9.56749 22.9967 8.86482 22.3503 8.47275C22.3533 8.42834 22.3551 8.38394 22.3551 8.33885V6.20018C22.3551 5.64034 22.2807 5.08827 22.1338 4.55383C23.362 3.90289 24.1354 2.63466 24.1354 1.2204C24.1356 0.547485 23.5881 0 22.915 0H13.9474C13.293 0 12.7135 0.324554 12.3601 0.82077C11.095 0.945282 9.92432 1.52206 9.05136 2.45682C8.14339 3.42911 7.64328 4.6978 7.64328 6.02898V6.98936C7.64328 7.4675 7.77489 7.91565 8.00331 8.29971C7.18277 8.6142 6.59821 9.40979 6.59821 10.3397C6.59821 11.5441 7.57828 12.524 8.78242 12.524C8.96027 12.524 9.13765 12.5015 9.30954 12.459C9.48006 14.6608 10.9055 16.5159 12.8696 17.309V18.5005H8.87238C8.22418 18.5005 7.62245 18.7029 7.12624 19.0471C7.10609 19.059 7.08687 19.073 7.0681 19.0885C6.30089 19.6474 5.80078 20.5522 5.80078 21.5721V29.5603C5.80078 29.8032 5.99762 29.9998 6.24023 29.9998C6.48285 29.9998 6.67969 29.8032 6.67969 29.5603V21.5721C6.67969 20.9759 6.91933 20.4348 7.30659 20.0391L12.5748 25.93C13.1895 26.6176 14.0712 27.0119 14.9931 27.0119C15.8318 27.0119 16.636 26.6851 17.2375 26.1088C17.5314 26.6464 18.1023 27.0119 18.7569 27.0119C19.7111 27.0119 20.4872 26.2356 20.4872 25.2816C20.4872 24.5625 20.0462 23.9447 19.4206 23.6838L22.6856 20.0327C23.0768 20.4288 23.3189 20.9727 23.3189 21.5721V23.5394C23.3189 23.782 23.5155 23.9788 23.7584 23.9788C24.001 23.9788 24.1978 23.782 24.1978 23.5394V21.5721C24.1978 20.5508 23.6964 19.6449 22.9271 19.0862ZM15.4388 21.2119C16.3227 21.0255 17.0059 20.2897 17.1135 19.3794H19.9638L15.5745 24.2873C15.5333 24.3333 15.4877 24.3732 15.4388 24.4075V21.2119ZM22.5213 10.3397C22.5213 11.0596 21.9358 11.6451 21.216 11.6451C21.04 11.6451 20.8665 11.6091 20.7063 11.5411V10.3217C21.2897 10.2134 21.7859 9.85359 22.077 9.35898C22.3547 9.60251 22.5213 9.95659 22.5213 10.3397ZM8.52219 6.02898C8.52219 3.94478 10.0147 2.16751 12.0085 1.76102C12.0028 1.82259 11.9994 1.88484 11.9994 1.94778V4.15581C11.9994 4.60281 12.0477 5.05051 12.1431 5.48607C12.1951 5.72319 12.4294 5.87334 12.6663 5.82161C12.9034 5.76965 13.0536 5.53551 13.0016 5.29839C12.9199 4.92416 12.8785 4.53964 12.8785 4.15581V1.94778C12.8785 1.35841 13.358 0.878906 13.9474 0.878906H22.9152C23.1033 0.878906 23.2567 1.03226 23.2567 1.2204C23.2567 2.41081 22.5426 3.46619 21.4373 3.90976C21.2196 3.99696 21.1089 4.23958 21.1855 4.46114C21.3785 5.01961 21.4764 5.60463 21.4764 6.20018V8.33885C21.4764 8.96645 20.9658 9.47708 20.3382 9.47708H18.1995C16.3802 9.47708 14.7057 8.56201 13.7201 7.02919C13.5889 6.82503 13.317 6.76598 13.1129 6.89735C12.9087 7.0285 12.8497 7.30042 12.9808 7.50458C13.1092 7.70416 13.2481 7.89436 13.3958 8.07564C12.7254 8.47343 11.9637 8.68309 11.1765 8.68309H10.2159C9.28207 8.68309 8.52219 7.92343 8.52219 6.98959V6.02898ZM7.47711 10.3397C7.47711 9.65973 7.99988 9.09988 8.66455 9.03992C8.85498 9.18434 9.06601 9.30244 9.29237 9.38988V11.5414C9.1317 11.61 8.96072 11.6451 8.78265 11.6451C8.06282 11.6451 7.47711 11.0596 7.47711 10.3397ZM10.1713 12.0145V9.56085C10.1862 9.56108 10.201 9.562 10.2159 9.562H11.1765C12.1882 9.562 13.1651 9.27361 14.0103 8.72818C15.1392 9.76547 16.6225 10.3558 18.1995 10.3558H19.8273V12.0145C19.8273 14.6766 17.6614 16.8425 14.9993 16.8425C12.3372 16.8425 10.1713 14.6766 10.1713 12.0145ZM14.9993 17.7214C15.4287 17.7214 15.8473 17.6733 16.2499 17.5829V19.1281C16.2499 19.8177 15.6889 20.3787 14.9993 20.3787C14.3097 20.3787 13.7485 19.8177 13.7485 19.1281V17.5829C14.1513 17.6733 14.5697 17.7214 14.9993 17.7214ZM14.9931 26.133C14.3209 26.133 13.6782 25.8456 13.2298 25.3441L8.04222 19.5431C8.2901 19.4412 8.56064 19.3838 8.84399 19.3801L10.8405 21.6129C10.9275 21.7099 11.0477 21.7593 11.1683 21.7593C11.2727 21.7593 11.3773 21.7225 11.461 21.6474C11.6421 21.4856 11.6576 21.2077 11.4958 21.0269L10.0225 19.3794H12.8849C12.9925 20.2895 13.6757 21.0255 14.5599 21.2119V24.4155C14.5063 24.3793 14.4562 24.3372 14.4115 24.2873L12.8469 22.5378C12.6851 22.3569 12.4075 22.3414 12.2264 22.5032C12.0456 22.665 12.03 22.9427 12.1918 23.1237L13.7565 24.873C14.0707 25.2246 14.5216 25.4263 14.9931 25.4263C15.4646 25.4263 15.9153 25.2246 16.2298 24.873L21.1425 19.3797C21.4268 19.3819 21.6982 19.4385 21.9473 19.5394L18.3064 23.611C17.6518 23.7877 17.1497 24.3391 17.0462 25.0202L16.7564 25.3441C16.3083 25.8456 15.6654 26.133 14.9931 26.133ZM18.7569 26.133C18.2874 26.133 17.9054 25.751 17.9054 25.2816C17.9054 24.8122 18.2874 24.4302 18.7569 24.4302C19.2263 24.4302 19.6083 24.8122 19.6083 25.2816C19.6083 25.751 19.2263 26.133 18.7569 26.133Z" fill="#3316F2"/>
<path d="M9.22394 26.5331C8.98109 26.5331 8.78448 26.7299 8.78448 26.9725V29.5337C8.78448 29.7766 8.98109 29.9732 9.22394 29.9732C9.46655 29.9732 9.66339 29.7766 9.66339 29.5337V26.9725C9.66339 26.7299 9.46655 26.5331 9.22394 26.5331Z" fill="#FD4B1B"/>
<path d="M20.7692 26.5331C20.5266 26.5331 20.3297 26.7299 20.3297 26.9725V29.5337C20.3297 29.7766 20.5266 29.9732 20.7692 29.9732C21.0118 29.9732 21.2086 29.7766 21.2086 29.5337V26.9725C21.2086 26.7299 21.0118 26.5331 20.7692 26.5331Z" fill="#FD4B1B"/>
<path d="M12.8894 11.6563L12.8839 11.2906C12.88 11.0479 12.6808 10.8539 12.4375 10.858C12.1949 10.8616 12.0013 11.0615 12.005 11.3041L12.0107 11.67C12.0143 11.9104 12.2105 12.1026 12.4499 12.1026H12.457C12.6994 12.099 12.8932 11.8992 12.8894 11.6563Z" fill="#FD4B1B"/>
<path d="M17.5419 12.1026H17.549C17.7884 12.1026 17.9843 11.9104 17.9882 11.67L17.9939 11.3041C17.9976 11.0614 17.8039 10.8616 17.5613 10.858C17.318 10.8541 17.1189 11.0477 17.115 11.2906L17.1093 11.6563C17.1056 11.8992 17.2992 12.099 17.5419 12.1026Z" fill="#FD4B1B"/>
<path d="M17.2347 13.6556C17.096 13.4565 16.8222 13.4073 16.6231 13.546C16.2436 13.8101 15.6343 13.9678 14.9932 13.9678C14.3521 13.9678 13.7428 13.8101 13.3634 13.546C13.1642 13.4073 12.8903 13.4565 12.7518 13.6556C12.6131 13.8547 12.6621 14.1287 12.8614 14.2674C13.3904 14.6354 14.1674 14.8467 14.9932 14.8467C15.8193 14.8467 16.5963 14.6357 17.1253 14.2674C17.3244 14.1287 17.3734 13.8547 17.2347 13.6556Z" fill="black"/>
</g>
<defs>
<clipPath id="clip0">
<rect width="30" height="30" fill="white"/>
</clipPath>
</defs>
</svg>
