<svg width="166" height="40" viewBox="0 0 166 40" fill="none" xmlns="http://www.w3.org/2000/svg">
<rect x="0.5" y="0.5" width="165" height="39" rx="4.5" stroke="#C4C4C4"/>
<g clip-path="url(#clip0)">
<path d="M29.9235 17.2323C27.1355 15.6729 22.6606 13.1689 15.7197 9.28255C15.2518 8.9735 14.7134 8.933 14.2482 9.09045L26.1568 20.9991L29.9235 17.2323Z" fill="#32BBFF"/>
<path d="M14.2482 9.09045C14.161 9.11999 14.0762 9.15561 13.995 9.19864C13.4813 9.47652 13.1038 10.0112 13.1038 10.6875V31.3107C13.1038 31.9869 13.4813 32.5216 13.995 32.7995C14.076 32.8424 14.1608 32.8782 14.2479 32.9079L26.1568 20.9991L14.2482 9.09045Z" fill="#32BBFF"/>
<path d="M26.1568 20.9991L14.2479 32.9079C14.7133 33.0666 15.2517 33.0292 15.7198 32.7156C22.4509 28.9464 26.8754 26.472 29.6957 24.8994C29.7742 24.8553 29.8511 24.8121 29.9271 24.7694L26.1568 20.9991Z" fill="#32BBFF"/>
<path d="M13.1038 20.9991V31.3107C13.1038 31.9869 13.4813 32.5216 13.995 32.7995C14.076 32.8425 14.1608 32.8782 14.2479 32.9079L26.1568 20.9991H13.1038Z" fill="#2C9FD9"/>
<path d="M15.7198 9.28256C15.1641 8.91562 14.5088 8.92607 13.9951 9.1987L25.9761 21.1798L29.9235 17.2323C27.1356 15.6729 22.6607 13.1689 15.7198 9.28256Z" fill="#29CC5E"/>
<path d="M25.9762 20.8184L13.9951 32.7995C14.5088 33.072 15.1641 33.0878 15.7198 32.7156C22.4509 28.9464 26.8754 26.472 29.6957 24.8994C29.7742 24.8553 29.8511 24.8121 29.9271 24.7694L25.9762 20.8184Z" fill="#D93F21"/>
<path d="M34.8961 20.9991C34.8961 20.4277 34.6078 19.851 34.0363 19.5312C34.0363 19.5312 32.9676 18.9349 29.6919 17.1027L25.7955 20.9991L29.6957 24.8993C32.9355 23.0803 34.0363 22.4669 34.0363 22.4669C34.6078 22.1472 34.8961 21.5705 34.8961 20.9991Z" fill="#FFD500"/>
<path d="M34.0363 22.4669C34.6078 22.1472 34.8961 21.5705 34.8961 20.9991H25.7955L29.6957 24.8993C32.9355 23.0803 34.0363 22.4669 34.0363 22.4669Z" fill="#FFAA00"/>
</g>
<path d="M51.512 16.64H54.488V26H56.728V16.64H59.704V14.832H51.512V16.64ZM63.5784 21.584C63.5784 19.872 64.3784 19.36 65.7064 19.36H66.2984V17.008C65.0664 17.008 64.1384 17.6 63.5784 18.512V17.136H61.3384V26H63.5784V21.584ZM71.5831 23.328L69.2951 17.136H66.7831L70.3351 25.776L68.4151 30.192H70.7991L76.2871 17.136H73.9031L71.5831 23.328ZM88.8911 26H91.2591L87.2431 14.816H84.6351L80.6191 26H82.9711L83.7071 23.872H88.1551L88.8911 26ZM87.5471 22.08H84.3151L85.9311 17.408L87.5471 22.08ZM95.0003 18.416V17.136H92.7603V30.224H95.0003V24.736C95.5443 25.456 96.5363 26.144 97.9283 26.144C100.2 26.144 101.976 24.304 101.976 21.536C101.976 18.768 100.2 16.992 97.9283 16.992C96.5523 16.992 95.5283 17.664 95.0003 18.416ZM99.6883 21.536C99.6883 23.216 98.5523 24.176 97.3363 24.176C96.1363 24.176 95.0003 23.248 95.0003 21.568C95.0003 19.888 96.1363 18.96 97.3363 18.96C98.5523 18.96 99.6883 19.856 99.6883 21.536ZM105.844 18.416V17.136H103.604V30.224H105.844V24.736C106.388 25.456 107.38 26.144 108.772 26.144C111.044 26.144 112.82 24.304 112.82 21.536C112.82 18.768 111.044 16.992 108.772 16.992C107.396 16.992 106.372 17.664 105.844 18.416ZM110.532 21.536C110.532 23.216 109.396 24.176 108.18 24.176C106.98 24.176 105.844 23.248 105.844 21.568C105.844 19.888 106.98 18.96 108.18 18.96C109.396 18.96 110.532 19.856 110.532 21.536ZM125.284 26H127.524V14.832H125.284V19.424H120.5V14.832H118.26V26H120.5V21.248H125.284V26ZM133.537 18.832C134.689 18.832 135.617 19.568 135.649 20.736H131.441C131.617 19.52 132.465 18.832 133.537 18.832ZM137.745 23.216H135.329C135.041 23.808 134.513 24.288 133.553 24.288C132.433 24.288 131.537 23.552 131.425 22.24H137.905C137.953 21.952 137.969 21.664 137.969 21.376C137.969 18.736 136.161 16.992 133.601 16.992C130.977 16.992 129.153 18.768 129.153 21.568C129.153 24.352 131.025 26.144 133.601 26.144C135.793 26.144 137.265 24.848 137.745 23.216ZM141.844 21.584C141.844 19.872 142.644 19.36 143.972 19.36H144.564V17.008C143.332 17.008 142.404 17.6 141.844 18.512V17.136H139.604V26H141.844V21.584ZM149.881 18.832C151.033 18.832 151.961 19.568 151.993 20.736H147.785C147.961 19.52 148.809 18.832 149.881 18.832ZM154.089 23.216H151.673C151.385 23.808 150.857 24.288 149.897 24.288C148.777 24.288 147.881 23.552 147.769 22.24H154.249C154.297 21.952 154.313 21.664 154.313 21.376C154.313 18.736 152.505 16.992 149.945 16.992C147.321 16.992 145.497 18.768 145.497 21.568C145.497 24.352 147.369 26.144 149.945 26.144C152.137 26.144 153.609 24.848 154.089 23.216Z" fill="black"/>
<defs>
<clipPath id="clip0">
<rect x="12" y="9" width="24" height="24" fill="white"/>
</clipPath>
</defs>
</svg>
